<svg width="104" height="6" viewBox="0 0 104 6" fill="none" xmlns="http://www.w3.org/2000/svg">
<path d="M1.4802 0.0305094C2.05686 -0.0476489 2.81278 0.0359212 3.38726 0.150626C3.56731 0.186202 3.47614 0.345226 3.60042 0.376944C3.8435 0.438775 4.06996 0.360783 4.31018 0.434439C4.38978 0.459627 4.29069 0.711522 4.37416 0.732167C4.83159 0.84349 5.26434 0.77933 5.72772 0.832875C8.01018 1.09706 10.2538 1.19161 12.5642 1.30638C13.326 1.34401 14.252 1.57262 15.0389 1.47264C15.1307 1.46075 15.076 1.23965 15.0935 1.22142C15.3676 0.942449 15.2764 1.3888 15.4554 1.44811C16.1657 1.68226 16.9556 1.70263 17.6392 1.6173C17.93 1.58035 17.6385 1.14119 17.9313 1.38768C17.9516 1.40434 17.8778 1.63913 17.9576 1.66417C18.1385 1.72049 18.4816 1.67853 18.6218 1.69713C18.892 1.73417 18.9367 1.73181 19.1922 1.73448C19.5415 1.74018 19.957 1.8569 20.3318 1.8037C20.4118 1.79164 20.3059 1.55096 20.4335 1.51C20.5612 1.46911 20.899 1.48951 21.0129 1.54625C21.1268 1.60302 21.0783 1.7922 21.0985 1.83556C21.2643 2.20155 21.6551 1.69465 21.7054 1.68212C22.6221 1.46852 23.4083 1.75728 24.2688 1.75646C24.9221 1.75522 25.6206 1.65989 26.2422 1.67296C26.9828 1.68947 27.6104 1.81989 28.3298 1.79747C28.4058 1.79538 28.3168 1.51239 28.4095 1.50926C29.3948 1.47633 30.3732 1.50718 31.3541 1.69823C31.4525 1.71764 31.3257 1.9661 31.424 2.00035C32.0258 2.20455 32.978 2.69507 33.3354 1.61327C33.743 1.65551 34.2379 1.69916 34.6026 1.91722C34.8377 2.05757 34.6093 2.32825 34.8982 2.21275C34.9633 2.18702 34.8786 1.94997 34.9763 1.92931C35.3876 1.84253 35.837 1.91958 36.2439 1.79711C36.3267 1.77164 36.3041 1.55923 36.3275 1.52098C36.5246 1.21122 36.8527 1.72328 36.9242 1.76048C37.4688 2.03795 37.8666 1.92876 38.3739 1.93553C38.4917 1.93722 38.3525 1.65192 38.4658 1.6433C39.0534 1.60241 39.6621 1.62693 40.2374 1.75353C40.3654 1.78237 40.2477 2.0254 40.3089 2.05162C40.5785 2.16427 40.6383 1.70525 40.8969 1.80443C40.9515 1.82475 40.9207 2.0328 40.9307 2.05565C41.0863 2.41433 41.2216 1.9061 41.2616 1.89488C41.7681 1.74157 42.0918 2.27213 42.581 2.19701C42.6395 2.18748 42.5076 1.92424 42.6721 1.91356C43.7682 1.84089 44.9274 1.9132 46.0124 2.12376C46.1811 2.15615 46.0607 2.3539 46.0713 2.37828C46.2443 2.75918 46.3562 2.24882 46.4112 2.2296C46.8452 2.09124 47.2505 2.51924 47.5454 1.91136C49.3831 2.12232 51.2124 1.78096 53.0349 2.32555C53.0581 2.33185 53.0166 2.58321 53.0628 2.59471C53.6195 2.73584 53.5126 2.34519 53.8809 1.86742C53.9737 1.74745 54.256 2.32428 54.2809 2.36656C54.3719 2.52237 54.2775 2.89632 54.308 2.9265C54.5601 3.16345 54.5191 1.92678 54.8592 1.92638C54.8698 1.92844 54.8251 2.15606 54.8537 2.1787C54.9424 2.24975 55.0303 2.1593 55.1171 2.23766C55.3157 2.41896 55.3865 3.01988 55.6898 2.67015C55.7282 2.62476 55.6696 1.92327 55.9733 1.95641C56.0943 1.97021 56.6302 1.95819 56.7804 2.00365C56.9304 2.04905 56.8274 2.27511 56.8381 2.2849C57.2422 2.58382 57.089 2.7077 57.2915 3.15025C57.494 3.59113 57.4378 2.53959 57.5203 2.42223C57.603 2.30519 57.8993 2.55182 57.9722 2.63756C58.045 2.72333 57.9542 2.86697 58.0189 2.91551C58.448 3.23264 58.2073 2.39357 58.3487 2.22667C58.682 1.83149 58.9417 2.61131 59.2468 2.68773C59.3294 2.70836 59.262 2.53075 59.3356 2.51414C59.6268 2.45071 59.8019 2.69404 60.1332 2.47093C60.1874 2.43457 60.4553 1.96572 60.6287 2.3098C60.6532 2.35941 60.5834 2.55374 60.7076 2.59727C60.893 2.6626 61.227 2.70508 61.4263 2.64012C61.5735 2.59206 61.4048 2.27185 61.59 2.37132C61.6723 2.41574 61.5198 2.60306 61.6744 2.67088C61.8283 2.73868 62.2216 2.73045 62.3712 2.72398C62.5206 2.71737 62.4388 2.47448 62.4509 2.45811C62.524 2.36438 62.8107 2.24725 62.836 2.24754C64.114 2.21789 65.2925 2.62732 66.5367 2.49181C66.6344 2.48152 66.5693 2.22539 66.5842 2.22118C66.9185 2.11386 66.6549 2.79487 66.8884 3.02281C66.8547 2.50303 66.9925 2.59715 67.228 2.54015C67.3415 2.51225 67.2797 2.31099 67.29 2.29039C67.4583 1.9847 67.5755 2.37954 67.6056 2.46031C67.7171 2.75743 67.8384 2.40636 67.9142 2.60496C67.99 2.80208 67.8156 3.0943 68.0414 3.09056C68.1047 2.9045 67.9371 2.41827 68.1085 2.33946C68.7554 2.04138 69.963 2.42288 70.4831 2.46251C71.0022 2.5021 71.1699 2.46777 71.4724 2.53502C72.0188 2.6566 71.8185 2.29585 72.1578 2.13072C72.498 1.96562 72.3327 2.85324 72.3816 3.04405C72.4296 3.23478 72.482 3.03844 72.5417 3.14329C72.6013 3.24812 72.4724 3.37786 72.6124 3.41722C72.7525 3.45654 73.1355 3.11722 73.1851 2.91771C73.2901 2.49501 73.1175 2.05138 73.4882 2.20726C73.5095 2.21651 73.4403 2.44991 73.5219 2.47349C74.1703 2.65317 74.8439 2.66431 75.4914 2.82323C75.5805 2.84544 75.5009 3.10509 75.5527 3.12095C76.0924 3.28703 75.8995 2.84923 76.1953 2.3629C76.1289 3.01011 76.2925 3.40607 76.7021 3.40989C76.9483 3.41242 76.9059 3.12975 77.0652 2.93052C77.113 2.87047 77.2872 3.06456 77.3188 2.93162C77.4229 2.49708 77.2588 2.01063 77.6811 2.20433C77.6997 2.21354 77.6407 2.4514 77.7047 2.4658C78.1186 2.56009 78.1681 2.10557 78.6154 2.05052C78.9661 2.00733 79.5897 2.2845 79.989 2.32957C79.9806 3.05722 80.3577 2.8906 80.5107 2.3889C80.7698 2.40944 81.0497 2.38108 81.3002 2.45042C81.3864 2.47407 81.3297 2.68474 81.3406 2.7075C81.5073 3.06459 81.6199 2.57649 81.6758 2.55736C82.282 2.37134 82.7759 2.74128 83.3544 2.37975C83.375 2.36672 83.4082 1.86128 83.5629 2.23033C83.5729 2.25577 83.3818 2.48574 83.654 2.50352C83.9261 2.52135 84.4392 2.7923 84.8171 2.55809C84.9086 2.5017 85.1398 2.09138 85.3255 2.41197C85.3502 2.4555 85.3232 2.60047 85.3589 2.68114C85.4743 2.93817 85.5373 2.42729 85.6729 2.86131C85.8086 3.29531 86.0907 3.62035 86.4718 3.3209C86.4839 3.3122 86.5741 2.90728 86.694 2.91368C86.8853 2.92425 87.1569 3.0086 87.3566 3.00596C87.4522 3.00456 87.3911 2.75312 87.4076 2.74852C88.0507 2.60762 88.5084 2.83178 89.1973 2.92906C89.3236 2.94739 89.6865 2.60452 89.931 2.87559C90.1995 3.17234 89.9236 4.40674 90.5407 4.11265C90.7896 3.99502 91.1046 2.42896 91.5519 3.24034C92.4194 3.03928 93.2215 3.45454 94.0914 3.16746C94.1305 3.15474 94.2542 2.71767 94.3462 2.72362C94.4827 2.73329 94.5576 2.93758 94.6551 2.95103C95.0636 3.01257 95.4374 2.83779 95.8312 2.86497C95.9808 2.87485 95.9285 3.08608 96.1068 3.09788C96.285 3.10949 96.4039 2.83135 96.6454 2.96568C96.8278 3.06808 97.0102 3.63659 97.2523 3.70286C97.2615 3.14208 97.4278 3.15363 97.7234 3.0056C97.7802 2.97688 97.7193 2.78169 97.7461 2.75804C97.8555 2.65744 97.9567 2.81921 98.0606 2.7097C98.0858 2.6834 98.087 2.49189 98.1077 2.45958C98.2833 2.17754 98.5726 2.60833 98.6223 2.68333C98.8128 2.96819 98.9018 2.71911 99.0479 2.83128C99.1937 2.94344 98.9757 3.08365 99.146 3.15172C99.4992 3.2925 99.9529 3.26157 100.312 3.27037C100.455 3.2727 100.357 3.01706 100.377 3.01146C100.673 2.94662 100.973 3.21854 101.137 2.70933C101.342 4.02596 101.315 2.58163 101.738 2.8452C101.771 2.86652 101.814 3.48914 101.686 3.58055C101.558 3.67187 101.364 3.47724 101.187 3.61973C101.145 3.65317 100.904 4.23661 100.871 4.27195C100.614 4.54816 100.577 3.61773 100.564 3.56663C100.409 3.01514 100.115 3.64368 100.038 3.68711C99.6831 3.88612 99.382 3.75527 99.0856 3.89732C98.8917 3.98913 98.8727 4.59859 98.7205 4.57993C98.2144 4.51827 98.0377 3.66807 97.5609 4.40525C97.4586 4.56248 97.5602 5.22861 97.1938 4.70481C97.1708 4.67179 96.8988 4.19261 96.7416 4.49571C96.7219 4.53392 96.7225 4.72805 96.6964 4.74436C96.522 4.84985 96.4056 4.69519 96.2155 4.76926C96.0255 4.84334 95.797 4.95376 95.58 4.88792C95.4492 4.84854 95.2814 4.48684 95.2188 4.39829C95.0421 4.1432 94.8525 4.56145 94.743 4.25254C94.6326 3.94208 94.8485 3.4706 94.5589 3.27C94.5482 3.77437 94.5236 4.29206 94.5063 4.79929C93.8717 4.78153 93.2474 4.61844 92.6107 4.64072C92.5317 4.64399 92.6124 4.91514 92.5278 4.92564C92.1708 4.96871 91.859 4.77542 91.4887 4.85239C91.2021 4.91302 90.8879 5.20011 90.5882 5.27244C90.4051 4.69529 89.9604 4.89122 89.6374 4.83848C89.5242 4.82025 89.5318 4.66611 89.4513 4.61582C89.1477 4.42984 89.29 4.93985 89.2067 5.02012C88.8497 5.36267 88.8191 4.20827 88.3981 4.23679C88.3758 4.23792 88.1031 4.85326 88.0656 4.89158C87.827 5.14145 88.0261 4.6774 87.8768 4.63194C87.6041 4.54885 87.4147 4.4019 87.0948 4.58213C87.0015 4.63552 86.7778 5.01905 86.5966 4.72239C86.5728 4.68354 86.586 4.48015 86.5668 4.46824C86.2196 4.26969 86.2105 4.90878 86.0121 5.12522C85.8137 5.34162 85.5072 4.90044 85.4448 4.77329C85.2817 4.44436 85.5699 4.63272 85.5787 4.60044C85.6825 4.2163 85.459 4.28244 85.2882 4.24998C85.2635 3.62335 85.0246 3.66096 85.1112 4.21885C85.121 4.27979 85.2539 4.22135 85.2882 4.24998C85.1383 4.86479 84.8758 4.94353 84.5859 4.369C84.4502 4.09972 84.5785 3.78576 84.1663 3.90061C83.9792 3.95246 84.0515 4.38393 83.8864 4.50156C83.5092 4.76996 83.019 4.36747 82.6302 4.43089C82.489 4.45391 82.6265 4.69009 82.5301 4.71397C82.2741 4.77806 82.0483 4.60085 81.7913 4.69163C81.768 4.70015 81.8249 4.94739 81.7449 4.95054C81.1389 4.97925 80.6112 4.82089 79.9784 4.8165C79.6727 4.8145 79.1261 4.95085 78.8094 4.92344C78.2604 4.87738 77.5852 4.51786 77.1162 4.6052C76.8104 4.66111 76.8775 4.90839 76.7465 5.07688C76.4936 5.40348 76.0459 4.81847 75.9857 4.72788C75.9838 4.72488 76.247 4.66659 76.1066 4.53965C76.0249 4.27515 75.9886 4.72674 75.9857 4.72788C75.9461 4.66936 75.4203 4.61323 75.316 4.6605C75.2592 4.68633 75.291 4.92062 75.2614 4.92966C74.5584 5.13933 73.8542 5.19888 73.1412 5.08933C73.1286 5.0846 73.1475 4.82253 73.118 4.81467C72.7052 4.69815 72.4409 5.01874 72.1005 5.20908C71.7601 5.39934 71.4902 5.33561 71.2887 4.88572C71.0318 4.94236 70.6634 4.74347 70.4513 4.62278C70.2393 4.5021 70.2097 5.01223 70.1911 5.02231C69.6092 5.3451 69.2728 5.05311 68.6691 5.00767C68.3821 4.98519 67.8128 5.05918 67.502 5.11497C67.2564 5.15991 67.1085 5.04035 66.8822 5.1168C66.8516 5.12701 66.8825 5.35415 66.8731 5.36289C66.6206 5.63465 66.7419 5.07937 66.6898 4.9802C66.5007 4.61956 66.384 4.42749 66.0605 4.59715C65.9859 4.636 65.7686 5.43552 65.6326 5.48227C65.4558 5.5416 65.5226 5.25502 65.3374 5.32444C65.3216 5.33012 65.3249 5.50692 65.2106 5.49912C64.6803 5.46526 64.102 5.36238 63.5509 5.3801C63.4756 5.38184 63.5721 5.66227 63.4633 5.66941C62.9529 5.70265 62.3935 5.69227 61.8962 5.56101C61.7738 5.52782 61.8506 5.33147 61.824 5.27317C61.6609 4.92041 61.4296 5.43296 61.3914 5.44272C60.481 5.68903 59.7842 5.22518 58.8562 5.44602C58.8057 5.45898 58.4169 6.00844 58.2434 5.53721C58.2316 5.50585 58.06 5.02373 57.9082 5.35337C57.8988 5.37399 58.0057 5.6222 57.8191 5.5969C57.6325 5.57166 57.3321 5.73741 57.0756 5.4647C56.9944 5.37879 56.8024 4.89786 56.5601 5.28123C56.5444 5.30799 56.1703 6.17484 56.0369 5.57676C56.0152 5.47831 56.0379 4.8454 55.7487 5.1699C55.6935 5.23281 55.7938 5.37398 55.6482 5.46213C55.4252 5.598 55.1298 5.42848 54.8556 5.71042C54.8078 5.76034 54.6043 6.18992 54.4411 5.86386C54.4155 5.8128 54.4641 5.6015 54.3779 5.57786C53.9679 5.46443 53.5387 5.60576 53.1225 5.45957C52.975 5.4082 53.0504 5.06661 52.8968 4.97507C52.743 4.88357 52.4334 4.79554 52.2726 4.95164C52.1117 5.1078 52.2874 5.65221 52.0465 5.69577C50.9989 5.88498 49.9611 5.56561 48.915 5.5189C48.7598 5.51192 48.8885 5.70672 48.6598 5.71042C47.8169 5.72492 46.3615 5.90757 45.63 5.49363C45.044 5.16208 45.7815 4.90967 45.3337 4.77476C45.1175 4.7104 44.8837 5.34333 44.8316 5.36326C44.3219 5.56567 43.9677 5.28529 43.509 5.37131C43.4143 5.38916 43.5072 5.6457 43.4266 5.65806C43.1512 5.70254 42.8618 5.58804 42.5987 5.60898C42.4806 5.61897 42.5024 5.8149 42.3938 5.79978C42.1338 5.76585 41.904 5.68349 41.6506 5.49985C41.6275 5.48312 41.7833 5.23939 41.591 5.23032C41.2797 5.21634 40.8935 5.03518 40.5354 5.22227C40.4291 5.27854 40.425 5.72634 40.1966 5.41709C40.1487 5.3525 40.2098 4.81479 39.9438 5.27939C39.899 5.3566 39.4522 5.98326 39.2329 5.57932C39.175 5.47301 39.0273 5.033 38.8996 5.10215C38.8823 5.11318 38.9517 5.35371 38.8458 5.37717C38.4727 5.45567 38.0816 5.43001 37.6983 5.50535C37.596 5.52594 37.7484 5.77484 37.5959 5.79758C37.1763 5.86049 36.6526 5.79712 36.2423 5.71921C36.0911 5.69002 36.1956 5.48384 36.1846 5.4614C36.0076 5.09645 35.903 5.58905 35.8443 5.61777C35.4789 5.78976 35.2008 5.55837 34.864 5.6196C34.7711 5.63588 34.837 5.87075 34.8185 5.8917C34.6267 6.09633 34.7696 5.67452 34.6481 5.62803C34.3079 5.49637 33.9287 5.51525 33.5847 5.54526C33.4583 5.55663 33.6003 5.82898 33.4869 5.83603C32.8157 5.88296 32.1179 5.8569 31.4629 5.70676C31.3395 5.678 31.4171 5.46828 31.3914 5.42038C31.2143 5.08527 30.9546 5.54237 30.8948 5.58591C30.6232 5.78472 30.5177 5.59927 30.2777 5.63389C29.1057 5.80623 27.6586 5.6834 26.5523 5.60752C25.1107 5.50986 23.992 5.31035 22.6173 5.36216C22.5299 5.36519 22.618 5.64417 22.5427 5.65036C21.5703 5.71762 20.6129 5.6086 19.6385 5.68918C19.5586 5.6953 19.6738 5.95978 19.5455 5.97849C19.2823 6.01872 18.9488 6.00434 18.6826 5.9199C18.5528 5.87921 18.727 5.65226 18.5963 5.61594C18.292 5.53085 17.9659 5.51202 17.6533 5.55442C17.5204 5.57304 17.721 5.84353 17.5481 5.84665C16.3706 5.87349 15.2141 5.92007 14.0241 5.5698C13.9425 5.54574 13.871 4.99599 13.6975 5.10142C13.6844 5.25399 13.6851 5.43346 13.6794 5.59653C11.9652 5.68438 10.2685 5.4938 8.54945 5.46433C8.47697 5.46315 8.60223 5.75444 8.46191 5.75364C7.64976 5.74933 6.86112 5.83002 6.03038 5.5405C5.94796 5.51219 5.99025 4.99974 5.74735 5.07725C5.7045 5.09139 5.33867 5.15973 5.24408 5.27097C5.23124 5.28775 5.29798 5.52694 5.18009 5.53391C4.49503 5.57023 3.77712 5.51563 3.09324 5.36948C2.98286 5.34544 3.1004 5.09072 3.02179 5.07139C2.46415 4.93617 1.8576 5.1298 1.32474 4.89854C0.968073 4.74282 1.10012 4.30252 0.910592 3.86912C0.883785 3.80797 0.662923 3.79828 0.651502 3.54612C0.622179 2.91204 0.729158 2.21773 0.685262 1.54186C0.675988 1.39628 0.380197 1.55308 0.555324 1.20128C0.567558 1.17774 0.782009 1.06098 0.834828 0.941639C0.871602 0.859129 0.805334 0.602682 0.880365 0.497061C0.95539 0.391538 1.03783 0.606507 1.16222 0.482412C1.28656 0.356782 1.23189 0.065044 1.4802 0.0305094ZM69.4966 4.08335C69.3003 3.83837 69.2713 4.73565 69.4837 4.52097C69.494 4.50953 69.5067 4.09537 69.4966 4.08335ZM93.2509 3.94163C92.9943 3.54586 92.8186 4.1278 92.9997 4.43345C93.1807 4.73877 93.3291 4.0616 93.2509 3.94163ZM95.9125 3.65269C95.6125 3.34065 95.5653 4.61303 95.8866 4.35581C95.9053 4.34128 95.93 3.67081 95.9125 3.65269ZM1.78954 3.74571C1.78683 3.73379 1.62806 3.72218 1.62427 3.73399C1.53973 4.01896 1.85719 4.04199 1.78954 3.74571ZM98.5536 3.33812C98.46 3.166 98.1904 3.36469 98.3067 3.57872C98.4004 3.7509 98.6703 3.55222 98.5536 3.33812ZM59.2551 3.12571C59.252 3.11234 59.1382 3.1003 59.1404 3.17589C59.1482 3.41932 59.3066 3.35061 59.2551 3.12571ZM103.043 3.32347C102.379 3.27557 101.977 2.22452 102.699 2.34312C102.83 2.36458 102.418 2.6783 102.584 2.77305C102.889 2.94569 103.091 2.28576 103.402 2.63939C103.458 2.70411 103.08 3.32854 103.041 3.32493C103.042 3.32444 103.042 3.32396 103.043 3.32347ZM69.3836 3.0056C69.3796 2.99373 69.2221 2.98248 69.2183 2.99425C69.133 3.27911 69.4504 3.30194 69.3836 3.0056ZM52.6133 2.57091C52.6046 2.54562 52.239 2.52198 52.227 2.54527C52.0363 3.0111 52.7756 3.06029 52.6133 2.57091ZM79.9953 2.34898C80.1672 2.06241 80.3729 2.02867 80.5099 2.38853C80.3391 2.36943 80.1671 2.36662 79.9953 2.34898Z" fill="black"/>
</svg>
