<svg xmlns="http://www.w3.org/2000/svg" shape-rendering="geometricPrecision" viewBox="24.74 199.23 495.9 145.38">
  <metadata>null</metadata>

<path d=" M 24.86 264.985 C 24.923 264.846 24.987 264.706 25.05 264.567 C 34.089 258.984 43.659 254.097 53.002 249.04 C 56.585 247.101 60.421 245.424 63.836 243.209 C 64.298 243.409 63.925 246.703 63.928 247.262 C 63.945 250.207 64.096 253.145 64.089 256.093 C 64.086 257.214 64.399 258.821 63.975 259.862 C 57.338 263.749 50.237 266.873 43.585 270.764 C 41.54 271.96 39.289 272.905 37.415 274.367 C 40.347 276.825 44.143 278.529 47.509 280.321 C 53.017 283.252 58.547 286.233 63.936 289.377 C 64.503 290.766 64.146 293.005 64.16 294.506 C 64.196 298.215 64.559 302.254 64.106 305.932 C 60.064 304.609 56.078 301.757 52.363 299.701 C 43.393 294.735 34.473 289.202 25.22 284.798 C 24.358 283.404 24.935 280.631 24.923 279.012 C 24.886 274.362 25.179 269.622 24.86 264.985 Z" opacity="1" fill="rgb(254,254,255)" fill-rule="evenodd"/>
<path d=" M 73.293 326.792 C 77.7 314.982 82.7 303.314 87.558 291.678 C 92.693 279.375 97.293 266.84 102.438 254.537 C 105.502 247.21 108.444 239.828 111.344 232.435 C 112.522 229.433 114.099 226.459 115.026 223.376 C 120.334 223.432 125.668 223.571 130.971 223.361 C 129.155 229.327 126.051 235.08 123.768 240.897 C 117.778 256.158 111.424 271.263 105.208 286.429 C 101.528 295.408 97.796 304.375 94.305 313.429 C 92.666 317.679 91.23 322.865 88.826 326.723 C 83.668 326.355 78.433 327 73.293 326.792 Z" opacity="1" fill="rgb(253,253,255)" fill-rule="evenodd"/>
<path d=" M 136.927 244.601 C 136.897 244.14 136.867 243.678 136.838 243.216 C 150.129 249.676 163.041 257.315 175.912 264.6 C 176.807 268.721 176.094 273.792 176.085 278.002 C 176.08 280.222 176.535 283.048 175.966 285.19 C 173.678 286.737 170.87 287.847 168.426 289.169 C 160.943 293.218 153.424 297.226 145.989 301.362 C 143.623 302.678 141.205 303.898 138.822 305.181 C 138.428 305.393 137.002 306.508 136.76 306.163 C 137.255 300.647 136.321 294.999 136.935 289.487 C 143.16 285.872 149.578 282.59 155.95 279.244 C 158.387 277.964 162.083 276.805 164.068 274.929 C 163.595 274.261 162.56 273.964 161.875 273.551 C 160.016 272.429 158.059 271.447 156.155 270.399 C 149.942 266.976 143.741 262.899 137.237 260.073 C 136.573 259.113 136.943 257.162 136.919 256.007 C 136.843 252.282 136.476 248.301 136.927 244.601 Z" opacity="1" fill="rgb(254,253,254)" fill-rule="evenodd"/>
<path d=" M 212.998 228.608 C 213.503 224.772 214.656 220.958 216.402 217.505 C 226.741 197.068 256.347 195.289 271.705 210.792 C 279.424 218.584 280.995 230.565 279.633 241.003 C 279.24 244.017 278.378 247.005 277.071 249.751 C 267.249 270.392 237.365 273.612 221.298 258.542 C 213.342 251.08 211.637 238.934 212.998 228.608 Z M 227.941 230.091 C 226.823 236.686 227.979 244.638 233.124 249.365 C 239.908 255.599 251.941 255.324 258.646 249.221 C 261.718 246.425 263.429 242.54 264.145 238.504 C 265.327 231.844 264.01 223.794 258.854 219.024 C 252.025 212.705 239.265 212.866 232.773 219.636 C 230.111 222.411 228.574 226.352 227.941 230.091 Z" opacity="1" fill="rgb(253,252,255)" fill-rule="evenodd"/>
<path d=" M 216.432 279.799 C 221.391 279.779 226.364 279.91 231.319 280.08 C 231.447 285.705 231.539 291.377 231.382 297.005 C 231.309 299.639 230.657 303.461 231.423 305.963 C 233.83 304.426 235.849 301.087 237.85 299.008 C 243.845 292.777 249.484 286.069 255.614 279.997 C 257.398 279.286 260.091 279.811 262.002 279.821 C 266.413 279.842 270.824 279.783 275.233 279.804 C 275.538 280.07 273.839 281.364 273.59 281.617 C 271.776 283.461 270.004 285.344 268.171 287.172 C 262.411 292.917 256.806 298.802 251.141 304.639 C 249.661 306.165 248.182 307.69 246.717 309.23 C 246.09 309.888 245.199 310.582 245.086 311.495 C 248.433 313.527 251.306 317.625 254.07 320.409 C 261.559 327.95 268.545 336.488 276.639 343.364 C 276.661 343.37 274.896 343.365 274.404 343.383 C 272.874 343.439 271.349 343.476 269.818 343.487 C 266.714 343.51 263.61 343.563 260.507 343.571 C 259.351 343.574 257.435 343.928 256.397 343.328 C 254.341 342.14 252.568 339.431 250.913 337.733 C 246.433 333.137 242.074 328.388 237.759 323.637 C 236.161 321.878 234.595 320.094 233.007 318.329 C 232.544 317.816 232.45 316.705 231.759 316.672 C 231.692 316.669 231.364 317.854 231.346 318.093 C 231.225 319.706 231.341 321.384 231.33 323.008 C 231.283 329.685 232.012 336.694 231.309 343.332 C 226.449 343.773 221.286 343.495 216.415 343.461 C 216.224 329.324 216.396 315.156 216.467 301.014 C 216.502 294.008 216.974 286.781 216.432 279.799 Z" opacity="1" fill="rgb(254,253,255)" fill-rule="evenodd"/>
<path d=" M 274.897 313.59 C 275.429 310.304 276.519 307.179 278.254 304.328 C 286.413 290.917 306.755 289.798 318.438 298.897 C 325.716 304.565 328.522 314.607 327.043 323.453 C 326.173 328.656 323.763 334.218 319.814 337.838 C 309.789 347.028 291.299 346.86 281.509 337.369 C 275.371 331.418 273.569 321.79 274.897 313.59 Z M 288.961 316.599 C 288.422 321.402 289.518 326.836 293.562 329.892 C 300.93 335.461 311.687 330.541 312.676 321.609 C 313.172 317.131 312.568 311.937 309.085 308.73 C 301.582 301.823 290.063 306.787 288.961 316.599 Z" opacity="1" fill="rgb(254,253,255)" fill-rule="evenodd"/>
<path d=" M 288.455 199.298 C 293.278 199.405 298.144 199.038 302.96 199.39 C 302.387 204.911 302.971 210.824 302.979 216.385 C 302.993 227.82 303.011 239.248 303.114 250.68 C 303.152 254.927 303.188 259.17 303.144 263.417 C 303.134 264.35 303.521 266.898 302.746 267.518 C 298.074 267.533 293.183 267.216 288.537 267.629 C 288.173 251.442 288.401 235.207 288.418 219.009 C 288.425 212.477 288.807 205.81 288.455 199.298 Z" opacity="1" fill="rgb(253,251,254)" fill-rule="evenodd"/>
<path d=" M 311.911 239.613 C 312.309 237.92 312.349 236.16 312.799 234.469 C 313.896 230.351 316.203 226.15 319.292 223.18 C 329.107 213.746 347.693 214.137 356.689 224.541 C 361.862 230.525 363.028 238.941 362.508 246.563 C 362.114 246.901 360.555 246.604 359.997 246.613 C 357.667 246.649 355.334 246.617 353.004 246.611 C 346.948 246.596 340.892 246.586 334.836 246.569 C 332.054 246.561 328.52 245.915 325.86 246.852 C 327.257 256.818 341.64 259.985 347.136 251.64 C 348.677 251.294 350.427 251.6 352.006 251.606 C 355.222 251.619 358.439 251.625 361.653 251.54 C 361.776 251.86 361.394 252.391 361.274 252.675 C 360.741 253.931 360.3 255.207 359.678 256.426 C 356.969 261.728 351.628 266.06 345.846 267.579 C 333.242 270.892 318.214 266.696 313.396 253.484 C 311.849 249.243 311.415 244.078 311.911 239.613 Z M 326.967 235.073 C 326.78 235.823 326.342 236.851 326.947 237.429 C 331.451 237.641 335.997 237.478 340.506 237.477 C 342.77 237.477 345.603 237.956 347.806 237.404 C 347.349 226.47 330.324 225.391 326.967 235.073 Z" opacity="1" fill="rgb(252,250,253)" fill-rule="evenodd"/>
<path d=" M 332.897 332.512 C 339.377 325.902 345.781 319.146 352.305 312.565 C 353.86 310.996 355.383 309.415 357.025 307.937 C 357.361 307.635 358.775 306.705 358.647 306.265 C 355.568 305.813 352.13 306.23 349.011 306.255 C 344.155 306.294 339.249 306.081 334.409 306.438 C 334.143 302.403 334.324 298.323 334.246 294.281 C 348.57 294.51 362.931 294.275 377.26 294.266 C 377.689 297.637 377.792 302.396 376.966 305.699 C 375.41 308.085 372.545 310.156 370.508 312.163 C 366.586 316.026 362.941 320.111 359.154 324.097 C 356.983 326.382 354.375 328.498 352.581 331.099 C 354.851 331.871 358.104 331.253 360.498 331.255 C 366.146 331.259 371.82 331.211 377.458 331.469 C 377.063 335.422 377.76 339.479 377.416 343.433 C 367.45 343.429 357.477 343.349 347.508 343.382 C 342.964 343.397 337.846 342.759 333.377 343.488 C 332.686 342.87 332.952 341.452 332.957 340.568 C 332.974 337.885 332.813 335.194 332.897 332.512 Z" opacity="1" fill="rgb(254,253,254)" fill-rule="evenodd"/>
<path d=" M 370.987 265.126 C 371.969 260.087 371.113 254.127 371.102 248.997 C 371.078 238.332 371.181 227.666 371.196 217.001 C 371.202 212.835 371.188 208.668 371.221 204.502 C 371.233 203.08 370.738 200.636 371.331 199.391 C 376.098 199.101 380.921 199.464 385.696 199.284 C 385.212 200.465 385.654 202.883 385.647 204.197 C 385.627 208.299 385.626 212.403 385.665 216.505 C 385.678 217.831 385.098 220.967 385.855 221.982 C 389.026 220.222 391.293 218.223 395.015 217.396 C 397.576 216.828 400.578 216.559 403.168 217.051 C 405.304 217.457 407.36 217.79 409.307 218.832 C 421.224 225.208 418.84 239.618 418.892 251.003 C 418.91 254.835 418.939 258.667 418.952 262.5 C 418.957 263.999 419.352 266.001 418.951 267.44 C 414.208 267.487 409.289 267.142 404.578 267.398 C 403.961 265.188 404.463 262.256 404.457 259.963 C 404.442 254.839 404.342 249.697 404.49 244.574 C 404.583 241.382 405.013 237.436 403.477 234.518 C 399.878 227.684 388.284 228.739 386.054 236.144 C 385.301 238.645 385.485 241.566 385.464 244.155 C 385.422 249.127 385.544 254.108 385.547 259.084 C 385.548 261.119 385.642 263.185 385.499 265.216 C 385.451 265.892 385.761 266.889 385.346 267.448 C 380.671 267.078 375.591 268.225 370.978 267.281 C 370.99 266.559 370.944 265.85 370.987 265.126 Z" opacity="1" fill="rgb(254,252,254)" fill-rule="evenodd"/>
<path d=" M 384.925 278.598 C 385.883 272.474 393.41 269.93 398.42 273.294 C 401.177 275.145 402.339 278.859 401.768 282.046 C 400.779 287.565 393.815 290.324 389.029 287.726 C 385.734 285.938 384.366 282.168 384.925 278.598 Z" opacity="1" fill="rgb(253,252,254)" fill-rule="evenodd"/>
<path d=" M 386.108 343.143 C 386.789 339.486 386.229 335.223 386.239 331.5 C 386.261 323.334 386.26 315.167 386.246 307.001 C 386.241 304 386.254 300.999 386.251 297.999 C 386.25 296.792 385.993 295.128 386.385 293.997 C 389.133 293.739 391.997 293.954 394.76 293.958 C 396.604 293.961 398.677 293.692 400.477 294.146 C 400.201 300.203 400.707 306.422 400.709 312.502 C 400.711 322.765 400.36 333.103 400.798 343.356 C 398.207 343.655 395.462 343.442 392.851 343.477 C 390.67 343.505 388.257 343.819 386.101 343.536 C 386.103 343.405 386.105 343.274 386.108 343.143 Z" opacity="1" fill="rgb(254,253,254)" fill-rule="evenodd"/>
<path d=" M 412.37 294.393 C 413.445 293.674 415.197 293.936 416.468 293.94 C 419.831 293.948 423.323 293.647 426.661 294.09 C 426.727 295.657 426.797 297.217 426.847 298.784 C 427.205 299.276 427.883 298.252 428.212 297.94 C 429.574 296.648 431.133 295.433 432.907 294.76 C 437.894 292.87 443.773 292.647 448.807 294.505 C 450.362 295.078 451.808 295.832 453.166 296.782 C 462.91 303.599 460.23 318.064 460.417 328.219 C 460.481 331.683 460.552 335.138 460.552 338.604 C 460.552 340.147 460.79 341.894 460.396 343.395 C 455.522 343.614 450.639 343.467 445.763 343.545 C 446.243 336.602 445.8 329.466 445.823 322.5 C 445.835 318.859 446.484 314.538 444.957 311.122 C 442.102 304.735 432.11 304.178 428.426 310.007 C 426.304 313.365 426.759 317.71 426.773 321.508 C 426.802 328.761 427.184 336.117 426.854 343.359 C 422.046 343.555 417.201 343.394 412.403 343.466 C 412.565 327.16 412.851 310.693 412.37 294.393 Z" opacity="1" fill="rgb(253,252,254)" fill-rule="evenodd"/>
<path d=" M 468.484 316.616 C 469.641 310.636 470.443 305.429 474.535 300.547 C 479.99 294.039 490.275 291.181 498.298 294.075 C 501.46 295.216 503.591 297.292 505.955 299.562 C 506.476 298.003 505.914 295.904 506.258 294.246 C 509.315 294.032 512.434 294.247 515.501 294.234 C 517.044 294.227 519.003 293.83 520.476 294.284 C 520.509 306.352 520.467 318.427 520.468 330.497 C 520.468 333.462 520.366 336.444 520.484 339.407 C 520.524 340.428 520.905 342.641 520.31 343.493 C 515.692 343.382 510.352 342.808 505.797 343.576 C 505.072 342.371 505.944 339.213 505.694 337.685 C 503.831 339.659 502.082 341.59 499.586 342.757 C 490.967 346.786 479.47 343.795 473.642 336.45 C 469.374 331.07 467.942 323.355 468.484 316.616 Z M 482.918 317.103 C 482.346 321.756 483.762 327.322 487.771 330.122 C 495.104 335.245 505.064 330.671 506.27 322.041 C 506.881 317.675 506.482 312.453 503.243 309.153 C 499.762 305.607 493.071 304.513 488.766 307.222 C 485.427 309.322 483.391 313.258 482.918 317.103 Z" opacity="1" fill="rgb(253,252,254)" fill-rule="evenodd"/>

</svg>